<?xml version="1.0" encoding="UTF-8" standalone="no"?><!DOCTYPE svg PUBLIC "-//W3C//DTD SVG 1.1//EN" "http://www.w3.org/Graphics/SVG/1.1/DTD/svg11.dtd"><svg width="100%" height="100%" viewBox="0 0 65 65" version="1.1" xmlns="http://www.w3.org/2000/svg" xmlns:xlink="http://www.w3.org/1999/xlink" xml:space="preserve" xmlns:serif="http://www.serif.com/" style="fill-rule:evenodd;clip-rule:evenodd;stroke-linejoin:round;stroke-miterlimit:1.41421;"><g><circle cx="32.065" cy="32.065" r="32.065" style="fill:#fbfbfb;"/><g><g><path d="M23.438,26.249c-1.663,0 -3.015,1.353 -3.015,3.015c0,1.663 1.352,3.015 3.015,3.015l2.01,0c1.662,0 3.015,-1.352 3.015,-3.015c0,-1.662 -1.353,-3.015 -3.015,-3.015l-2.01,0Zm3.015,3.015c0,0.554 -0.451,1.005 -1.005,1.005l-2.01,0c-0.554,0 -1.005,-0.451 -1.005,-1.005c0,-0.554 0.451,-1.005 1.005,-1.005l2.01,0c0.554,0 1.005,0.451 1.005,1.005Z" style="fill:#2272d8;fill-rule:nonzero;"/><path d="M48.81,30.647l-1.448,-4.346c-0.411,-1.233 -1.561,-2.062 -2.861,-2.062l-1.566,0l0,-3.149c0,-1.662 -1.353,-3.015 -3.015,-3.015l-12.462,0c-1.663,0 -3.015,1.353 -3.015,3.015l0,1.139l-6.767,0c-1.828,0 -3.245,1.619 -2.984,3.446l1.474,10.046c0.211,1.476 1.494,2.589 2.985,2.589l1.272,0l0,3.015c0,0.266 0.106,0.522 0.294,0.71l1.299,1.3l-1.299,1.299c-0.188,0.189 -0.294,0.444 -0.294,0.711l0,2.01c0,0.217 0.07,0.429 0.201,0.603l3.015,4.02c0.189,0.253 0.487,0.402 0.804,0.402c0.316,0 0.614,-0.149 0.804,-0.402l3.015,-4.02c0.13,-0.174 0.201,-0.386 0.201,-0.603l0,-9.045l1.271,0c1.491,0 2.774,-1.113 2.985,-2.589l1.436,-10.05c0.124,-0.866 -0.134,-1.741 -0.707,-2.402c-0.573,-0.661 -1.403,-1.04 -2.278,-1.04l-4.717,0l0,-1.139c0,-0.554 0.451,-1.005 1.005,-1.005l12.462,0c0.554,0 1.005,0.451 1.005,1.005l0,3.149l-1.566,0c-1.3,0 -2.45,0.829 -2.861,2.062l-1.449,4.346c-0.102,0.308 -0.154,0.629 -0.154,0.954l0,9.724c0,1.662 1.352,3.015 3.015,3.015l8.04,0c1.662,0 3.015,-1.353 3.015,-3.015l0,-9.724c0,-0.325 -0.052,-0.646 -0.155,-0.954Zm-22.357,16.373l-2.01,2.68l-2.01,-2.68l0,-1.259l1.715,-1.716c0.393,-0.392 0.393,-1.029 0,-1.421l-1.715,-1.716l0,-2.598l4.02,0l0,8.71Zm5.476,-22.434c0.194,0.223 0.278,0.508 0.236,0.8l-1.436,10.051c-0.07,0.492 -0.498,0.862 -0.995,0.862l-10.583,0c-0.497,0 -0.925,-0.37 -0.996,-0.866l-1.474,-10.047c-0.087,-0.606 0.382,-1.147 0.995,-1.147l13.494,0c0.296,0 0.566,0.123 0.759,0.347Zm15.026,16.739c0,0.554 -0.451,1.005 -1.005,1.005l-8.04,0c-0.554,0 -1.005,-0.451 -1.005,-1.005l0,-9.724c0,-0.109 0.017,-0.216 0.051,-0.318l1.449,-4.346c0.137,-0.412 0.52,-0.688 0.954,-0.688l1.566,0l0,1.005c0,0.555 0.45,1.005 1.005,1.005c0.555,0 1.005,-0.45 1.005,-1.005l0,-1.005l1.566,0c0.433,0 0.817,0.276 0.954,0.688l1.448,4.346c0.035,0.102 0.052,0.209 0.052,0.318l0,9.724Z" style="fill:#2272d8;fill-rule:nonzero;"/><path d="M43.94,30.269l-4.02,0c-0.555,0 -1.005,0.45 -1.005,1.005l0,8.041c0,0.555 0.45,1.005 1.005,1.005l4.02,0c0.555,0 1.005,-0.45 1.005,-1.005c0,-0.354 0,-7.688 0,-8.041c0,-0.555 -0.45,-1.005 -1.005,-1.005Zm-3.015,2.01l2.01,0l0,2.01l-2.01,0l0,-2.01Zm0,6.031l0,-2.011l2.01,0l0,2.011l-2.01,0Z" style="fill:#2272d8;fill-rule:nonzero;"/></g></g></g></svg>