<?xml version="1.0" encoding="UTF-8" standalone="no"?><!DOCTYPE svg PUBLIC "-//W3C//DTD SVG 1.1//EN" "http://www.w3.org/Graphics/SVG/1.1/DTD/svg11.dtd"><svg width="100%" height="100%" viewBox="0 0 26 26" version="1.1" xmlns="http://www.w3.org/2000/svg" xmlns:xlink="http://www.w3.org/1999/xlink" xml:space="preserve" xmlns:serif="http://www.serif.com/" style="fill-rule:evenodd;clip-rule:evenodd;stroke-linejoin:round;stroke-miterlimit:1.41421;"><g><circle cx="12.906" cy="12.906" r="12.906" style="fill:#fff;"/><path d="M18.697,6.87c-1.472,-1.356 -3.303,-2.035 -5.489,-2.035c-2.299,0 -4.258,0.771 -5.875,2.315c-1.617,1.545 -2.427,3.464 -2.427,5.763c0,2.203 0.771,4.096 2.308,5.683c1.545,1.587 3.619,2.381 6.231,2.381c1.574,0 3.118,-0.323 4.633,-0.971c0.494,-0.211 0.734,-0.777 0.533,-1.275c-0.207,-0.513 -0.793,-0.75 -1.304,-0.533c-1.317,0.566 -2.608,0.849 -3.866,0.849c-2.002,0 -3.553,-0.609 -4.652,-1.83c-1.097,-1.219 -1.647,-2.651 -1.647,-4.294c0,-1.785 0.59,-3.273 1.765,-4.469c1.172,-1.192 2.618,-1.791 4.33,-1.791c1.577,0 2.911,0.491 3.998,1.472c1.086,0.981 1.63,2.216 1.63,3.704c0,1.018 -0.251,1.867 -0.748,2.543c-0.497,0.678 -1.014,1.014 -1.551,1.014c-0.29,0 -0.434,-0.155 -0.434,-0.468c0,-0.254 0.019,-0.55 0.056,-0.892l0.612,-5.009l-2.107,0l-0.135,0.491c-0.537,-0.438 -1.126,-0.659 -1.765,-0.659c-1.014,0 -1.884,0.405 -2.605,1.212c-0.724,0.807 -1.083,1.847 -1.083,3.118c0,1.242 0.319,2.246 0.961,3.007c0.642,0.764 1.413,1.143 2.315,1.143c0.807,0 1.495,-0.34 2.068,-1.015c0.431,0.649 1.067,0.972 1.907,0.972c1.234,0 2.301,-0.537 3.2,-1.614c0.899,-1.073 1.35,-2.371 1.35,-3.889c0,-1.923 -0.734,-3.566 -2.209,-4.923Zm-4.854,7.577c-0.372,0.501 -0.816,0.754 -1.334,0.754c-0.352,0 -0.635,-0.184 -0.849,-0.553c-0.217,-0.369 -0.326,-0.826 -0.326,-1.376c0,-0.679 0.151,-1.225 0.454,-1.64c0.303,-0.415 0.679,-0.626 1.126,-0.626c0.389,0 0.735,0.155 1.038,0.468c0.303,0.313 0.454,0.728 0.454,1.248c-0.003,0.649 -0.191,1.222 -0.563,1.725Z" style="fill:#2272d8;fill-rule:nonzero;"/></g></svg>