<?xml version="1.0" encoding="UTF-8" standalone="no"?><!DOCTYPE svg PUBLIC "-//W3C//DTD SVG 1.1//EN" "http://www.w3.org/Graphics/SVG/1.1/DTD/svg11.dtd"><svg width="100%" height="100%" viewBox="0 0 65 65" version="1.1" xmlns="http://www.w3.org/2000/svg" xmlns:xlink="http://www.w3.org/1999/xlink" xml:space="preserve" xmlns:serif="http://www.serif.com/" style="fill-rule:evenodd;clip-rule:evenodd;stroke-linejoin:round;stroke-miterlimit:1.41421;"><g><circle cx="32.065" cy="32.065" r="32.065" style="fill:#fff;"/><g><g><path d="M47.851,20.864c-0.32,-0.371 -0.78,-0.575 -1.264,-0.575l-23.268,0l-0.32,-1.965c-0.14,-0.814 -0.839,-1.405 -1.659,-1.405l-3.79,0c-0.93,0 -1.685,0.755 -1.685,1.685c0,0.928 0.755,1.685 1.685,1.685l2.357,0l3.132,18.786c0.017,0.074 0.051,0.141 0.074,0.207c0.034,0.09 0.051,0.172 0.091,0.254c0.058,0.116 0.132,0.206 0.206,0.305c0.048,0.065 0.099,0.131 0.155,0.187c0.099,0.091 0.215,0.158 0.329,0.223c0.067,0.032 0.115,0.083 0.189,0.108c0.198,0.073 0.404,0.122 0.616,0.122l18.517,0c0.928,0 1.685,-0.747 1.685,-1.685c0,-0.928 -0.757,-1.675 -1.685,-1.675l-17.086,0l-0.28,-1.685l19.051,0c0.838,0 1.545,-0.617 1.669,-1.448l1.677,-11.784c0.073,-0.486 -0.076,-0.97 -0.396,-1.34Zm-3.213,2.785l-0.477,3.371l-5.99,0l0,-3.371l6.467,0Zm-8.152,0l0,3.371l-5.056,0l0,-3.371l5.056,0Zm0,5.056l0,3.36l-5.056,0l0,-3.36l5.056,0Zm-6.731,-5.056l0,3.371l-5.056,0c-0.09,0 -0.164,0.025 -0.248,0.048l-0.566,-3.419l5.87,0Zm-5.03,5.056l5.03,0l0,3.36l-4.471,0l-0.559,-3.36Zm13.446,3.36l0,-3.36l5.752,0l-0.486,3.36l-5.266,0Z" style="fill:#2272d8;fill-rule:nonzero;"/><path d="M29.755,44.689c0,1.397 -1.136,2.522 -2.533,2.522c-1.389,0 -2.523,-1.125 -2.523,-2.522c0,-1.389 1.134,-2.523 2.523,-2.523c1.397,0 2.533,1.134 2.533,2.523Z" style="fill:#2272d8;fill-rule:nonzero;"/><path d="M44.901,44.689c0,1.397 -1.134,2.522 -2.522,2.522c-1.397,0 -2.533,-1.125 -2.533,-2.522c0,-1.389 1.136,-2.523 2.533,-2.523c1.388,0 2.522,1.134 2.522,2.523Z" style="fill:#2272d8;fill-rule:nonzero;"/></g></g></g></svg>