<?xml version="1.0" encoding="UTF-8" standalone="no"?><!DOCTYPE svg PUBLIC "-//W3C//DTD SVG 1.1//EN" "http://www.w3.org/Graphics/SVG/1.1/DTD/svg11.dtd"><svg width="100%" height="100%" viewBox="0 0 65 65" version="1.1" xmlns="http://www.w3.org/2000/svg" xmlns:xlink="http://www.w3.org/1999/xlink" xml:space="preserve" xmlns:serif="http://www.serif.com/" style="fill-rule:evenodd;clip-rule:evenodd;stroke-linejoin:round;stroke-miterlimit:1.41421;"><g><circle cx="32.065" cy="32.065" r="32.065" style="fill:#fff;"/><g><g><path d="M20.112,21.645c0.102,0.026 0.194,0.078 0.268,0.152l8.257,8.258l1.495,-1.494l-8.258,-8.258c-0.074,-0.074 -0.126,-0.167 -0.152,-0.269l-0.519,-2.071l-3.446,-1.97l-1.687,1.687l1.971,3.448l2.071,0.517Z" style="fill:#2272d8;fill-rule:nonzero;"/><path d="M27.455,40.481l13.103,-13.104c0.143,-0.143 0.352,-0.201 0.548,-0.152c1.726,0.442 3.558,0.059 4.962,-1.036c1.404,-1.096 2.221,-2.78 2.212,-4.561c0,-0.109 -0.003,-0.218 -0.01,-0.328l-3.048,3.047c-0.154,0.155 -0.383,0.209 -0.591,0.139l-3.466,-1.155c-0.173,-0.057 -0.308,-0.193 -0.366,-0.365l-1.155,-3.466c-0.069,-0.208 -0.015,-0.437 0.139,-0.591l3.048,-3.048c-1.835,-0.114 -3.614,0.657 -4.787,2.074c-1.172,1.416 -1.595,3.309 -1.139,5.09c0.049,0.197 -0.008,0.405 -0.152,0.549l-13.103,13.102c-0.144,0.143 -0.352,0.2 -0.549,0.152c-0.456,-0.117 -0.925,-0.178 -1.396,-0.18c-2.488,-0.016 -4.711,1.552 -5.531,3.902c-0.818,2.35 -0.052,4.961 1.908,6.494c1.96,1.534 4.678,1.651 6.762,0.291c2.084,-1.359 3.072,-3.894 2.458,-6.306c-0.049,-0.197 0.009,-0.405 0.153,-0.548Zm-4.344,4.255l-2.812,0l-1.387,-2.31l1.387,-2.311l2.812,0l1.387,2.311l-1.387,2.31Zm2.23,-6.763l12.709,-12.71l0.817,0.817l-12.71,12.71l-0.816,-0.817Z" style="fill:#2272d8;fill-rule:nonzero;"/><path d="M47.253,42.215l-6.489,-6.491c-0.716,0.602 -1.773,0.556 -2.434,-0.105c-0.662,-0.66 -0.708,-1.717 -0.108,-2.433l-0.919,-0.92l-4.96,4.96l0.925,0.925c0.715,-0.602 1.772,-0.556 2.433,0.104c0.662,0.661 0.709,1.718 0.108,2.434l6.483,6.487c0.071,0.07 0.146,0.136 0.221,0.2l4.94,-4.94c-0.064,-0.076 -0.13,-0.15 -0.2,-0.221Zm-3.426,2.352l-5.777,-5.777l0.817,-0.817l5.777,5.777l-0.817,0.817Z" style="fill:#2272d8;fill-rule:nonzero;"/></g><path d="M43.543,47.979c1.287,0.484 2.737,0.17 3.71,-0.802c0.972,-0.973 1.286,-2.424 0.802,-3.71l-4.512,4.512Z" style="fill:#2272d8;fill-rule:nonzero;"/></g></g></svg>